ISO-10303-21;
HEADER;
/* Generated by software containing ST-Developer
 * from STEP Tools, Inc. (www.steptools.com) 
 */
/* OPTION: using custom renumber hook */

FILE_DESCRIPTION(
/* description */ ('STEP AP242 Edition 2',
'CAx-IF Rec.Pracs.---Representation and Presentation of Product Manufa
cturing Information (PMI)---4.0---2014-10-13',
'CAx-IF Rec.Pracs.---3D Tessellated Geometry---0.4---2014-09-14','2;1',
'CAx-IF Rec.Pracs.---User Defined Attributes---1.5---2016-08-15'),
/* implementation_level */ '2;1');

FILE_NAME(
/* name */ '695ebac673e58fd0c7e7272f',
/* time_stamp */ '2026-01-07T19:57:58Z',
/* author */ (''),
/* organization */ (''),
/* preprocessor_version */ 'ST-DEVELOPER v20',
/* originating_system */ 'ONSHAPE BY PTC INC, 1.208',
/* authorisation */ '  ');

FILE_SCHEMA (('AP242_MANAGED_MODEL_BASED_3D_ENGINEERING_MIM_LF { 1 0 10303 442 3 1 4 }'));
ENDSEC;

DATA;
#10=SHAPE_REPRESENTATION_RELATIONSHIP('','',#597,#11);
#11=ADVANCED_BREP_SHAPE_REPRESENTATION('',(#595),#969);
#12=CIRCLE('',#616,0.003);
#13=CIRCLE('',#617,0.003);
#14=CIRCLE('',#620,0.007);
#15=CIRCLE('',#621,0.002);
#16=CIRCLE('',#622,0.002);
#17=CIRCLE('',#623,0.002);
#18=CIRCLE('',#624,0.002);
#19=CIRCLE('',#627,0.002);
#20=CIRCLE('',#630,0.002);
#21=CIRCLE('',#633,0.002);
#22=CIRCLE('',#636,0.002);
#23=CIRCLE('',#639,0.007);
#24=CIRCLE('',#641,0.005);
#25=CIRCLE('',#643,0.005);
#26=CYLINDRICAL_SURFACE('',#615,0.003);
#27=CYLINDRICAL_SURFACE('',#626,0.002);
#28=CYLINDRICAL_SURFACE('',#629,0.002);
#29=CYLINDRICAL_SURFACE('',#632,0.002);
#30=CYLINDRICAL_SURFACE('',#635,0.002);
#31=CYLINDRICAL_SURFACE('',#638,0.007);
#32=CYLINDRICAL_SURFACE('',#642,0.005);
#33=ORIENTED_EDGE('',*,*,#189,.F.);
#34=ORIENTED_EDGE('',*,*,#190,.F.);
#35=ORIENTED_EDGE('',*,*,#191,.T.);
#36=ORIENTED_EDGE('',*,*,#192,.T.);
#37=ORIENTED_EDGE('',*,*,#193,.T.);
#38=ORIENTED_EDGE('',*,*,#194,.F.);
#39=ORIENTED_EDGE('',*,*,#195,.F.);
#40=ORIENTED_EDGE('',*,*,#190,.T.);
#41=ORIENTED_EDGE('',*,*,#196,.T.);
#42=ORIENTED_EDGE('',*,*,#197,.F.);
#43=ORIENTED_EDGE('',*,*,#198,.F.);
#44=ORIENTED_EDGE('',*,*,#194,.T.);
#45=ORIENTED_EDGE('',*,*,#199,.F.);
#46=ORIENTED_EDGE('',*,*,#200,.F.);
#47=ORIENTED_EDGE('',*,*,#201,.T.);
#48=ORIENTED_EDGE('',*,*,#197,.T.);
#49=ORIENTED_EDGE('',*,*,#202,.T.);
#50=ORIENTED_EDGE('',*,*,#203,.F.);
#51=ORIENTED_EDGE('',*,*,#204,.F.);
#52=ORIENTED_EDGE('',*,*,#200,.T.);
#53=ORIENTED_EDGE('',*,*,#205,.T.);
#54=ORIENTED_EDGE('',*,*,#206,.F.);
#55=ORIENTED_EDGE('',*,*,#207,.F.);
#56=ORIENTED_EDGE('',*,*,#203,.T.);
#57=ORIENTED_EDGE('',*,*,#208,.F.);
#58=ORIENTED_EDGE('',*,*,#209,.F.);
#59=ORIENTED_EDGE('',*,*,#210,.T.);
#60=ORIENTED_EDGE('',*,*,#206,.T.);
#61=ORIENTED_EDGE('',*,*,#211,.F.);
#62=ORIENTED_EDGE('',*,*,#212,.F.);
#63=ORIENTED_EDGE('',*,*,#213,.T.);
#64=ORIENTED_EDGE('',*,*,#209,.T.);
#65=ORIENTED_EDGE('',*,*,#214,.T.);
#66=ORIENTED_EDGE('',*,*,#215,.F.);
#67=ORIENTED_EDGE('',*,*,#216,.F.);
#68=ORIENTED_EDGE('',*,*,#212,.T.);
#69=ORIENTED_EDGE('',*,*,#217,.F.);
#70=ORIENTED_EDGE('',*,*,#218,.F.);
#71=ORIENTED_EDGE('',*,*,#219,.T.);
#72=ORIENTED_EDGE('',*,*,#215,.T.);
#73=ORIENTED_EDGE('',*,*,#220,.F.);
#74=ORIENTED_EDGE('',*,*,#221,.F.);
#75=ORIENTED_EDGE('',*,*,#222,.T.);
#76=ORIENTED_EDGE('',*,*,#218,.T.);
#77=ORIENTED_EDGE('',*,*,#223,.T.);
#78=ORIENTED_EDGE('',*,*,#224,.F.);
#79=ORIENTED_EDGE('',*,*,#225,.F.);
#80=ORIENTED_EDGE('',*,*,#221,.T.);
#81=ORIENTED_EDGE('',*,*,#226,.F.);
#82=ORIENTED_EDGE('',*,*,#227,.F.);
#83=ORIENTED_EDGE('',*,*,#228,.T.);
#84=ORIENTED_EDGE('',*,*,#224,.T.);
#85=ORIENTED_EDGE('',*,*,#229,.T.);
#86=ORIENTED_EDGE('',*,*,#230,.F.);
#87=ORIENTED_EDGE('',*,*,#231,.F.);
#88=ORIENTED_EDGE('',*,*,#227,.T.);
#89=ORIENTED_EDGE('',*,*,#232,.T.);
#90=ORIENTED_EDGE('',*,*,#233,.F.);
#91=ORIENTED_EDGE('',*,*,#234,.F.);
#92=ORIENTED_EDGE('',*,*,#230,.T.);
#93=ORIENTED_EDGE('',*,*,#235,.F.);
#94=ORIENTED_EDGE('',*,*,#192,.F.);
#95=ORIENTED_EDGE('',*,*,#236,.T.);
#96=ORIENTED_EDGE('',*,*,#233,.T.);
#97=ORIENTED_EDGE('',*,*,#237,.F.);
#98=ORIENTED_EDGE('',*,*,#238,.T.);
#99=ORIENTED_EDGE('',*,*,#191,.F.);
#100=ORIENTED_EDGE('',*,*,#195,.T.);
#101=ORIENTED_EDGE('',*,*,#198,.T.);
#102=ORIENTED_EDGE('',*,*,#201,.F.);
#103=ORIENTED_EDGE('',*,*,#204,.T.);
#104=ORIENTED_EDGE('',*,*,#207,.T.);
#105=ORIENTED_EDGE('',*,*,#210,.F.);
#106=ORIENTED_EDGE('',*,*,#213,.F.);
#107=ORIENTED_EDGE('',*,*,#216,.T.);
#108=ORIENTED_EDGE('',*,*,#219,.F.);
#109=ORIENTED_EDGE('',*,*,#222,.F.);
#110=ORIENTED_EDGE('',*,*,#225,.T.);
#111=ORIENTED_EDGE('',*,*,#228,.F.);
#112=ORIENTED_EDGE('',*,*,#231,.T.);
#113=ORIENTED_EDGE('',*,*,#234,.T.);
#114=ORIENTED_EDGE('',*,*,#236,.F.);
#115=ORIENTED_EDGE('',*,*,#238,.F.);
#116=ORIENTED_EDGE('',*,*,#239,.T.);
#117=ORIENTED_EDGE('',*,*,#240,.T.);
#118=ORIENTED_EDGE('',*,*,#241,.T.);
#119=ORIENTED_EDGE('',*,*,#242,.T.);
#120=ORIENTED_EDGE('',*,*,#243,.T.);
#121=ORIENTED_EDGE('',*,*,#244,.F.);
#122=ORIENTED_EDGE('',*,*,#245,.T.);
#123=ORIENTED_EDGE('',*,*,#246,.F.);
#124=ORIENTED_EDGE('',*,*,#247,.T.);
#125=ORIENTED_EDGE('',*,*,#189,.T.);
#126=ORIENTED_EDGE('',*,*,#235,.T.);
#127=ORIENTED_EDGE('',*,*,#232,.F.);
#128=ORIENTED_EDGE('',*,*,#229,.F.);
#129=ORIENTED_EDGE('',*,*,#226,.T.);
#130=ORIENTED_EDGE('',*,*,#223,.F.);
#131=ORIENTED_EDGE('',*,*,#220,.T.);
#132=ORIENTED_EDGE('',*,*,#217,.T.);
#133=ORIENTED_EDGE('',*,*,#214,.F.);
#134=ORIENTED_EDGE('',*,*,#211,.T.);
#135=ORIENTED_EDGE('',*,*,#208,.T.);
#136=ORIENTED_EDGE('',*,*,#205,.F.);
#137=ORIENTED_EDGE('',*,*,#202,.F.);
#138=ORIENTED_EDGE('',*,*,#199,.T.);
#139=ORIENTED_EDGE('',*,*,#196,.F.);
#140=ORIENTED_EDGE('',*,*,#193,.F.);
#141=ORIENTED_EDGE('',*,*,#240,.F.);
#142=ORIENTED_EDGE('',*,*,#248,.F.);
#143=ORIENTED_EDGE('',*,*,#249,.T.);
#144=ORIENTED_EDGE('',*,*,#250,.T.);
#145=ORIENTED_EDGE('',*,*,#241,.F.);
#146=ORIENTED_EDGE('',*,*,#250,.F.);
#147=ORIENTED_EDGE('',*,*,#251,.T.);
#148=ORIENTED_EDGE('',*,*,#252,.T.);
#149=ORIENTED_EDGE('',*,*,#242,.F.);
#150=ORIENTED_EDGE('',*,*,#252,.F.);
#151=ORIENTED_EDGE('',*,*,#253,.T.);
#152=ORIENTED_EDGE('',*,*,#254,.T.);
#153=ORIENTED_EDGE('',*,*,#243,.F.);
#154=ORIENTED_EDGE('',*,*,#254,.F.);
#155=ORIENTED_EDGE('',*,*,#255,.T.);
#156=ORIENTED_EDGE('',*,*,#256,.T.);
#157=ORIENTED_EDGE('',*,*,#244,.T.);
#158=ORIENTED_EDGE('',*,*,#256,.F.);
#159=ORIENTED_EDGE('',*,*,#257,.F.);
#160=ORIENTED_EDGE('',*,*,#258,.T.);
#161=ORIENTED_EDGE('',*,*,#245,.F.);
#162=ORIENTED_EDGE('',*,*,#258,.F.);
#163=ORIENTED_EDGE('',*,*,#259,.T.);
#164=ORIENTED_EDGE('',*,*,#260,.T.);
#165=ORIENTED_EDGE('',*,*,#246,.T.);
#166=ORIENTED_EDGE('',*,*,#260,.F.);
#167=ORIENTED_EDGE('',*,*,#261,.F.);
#168=ORIENTED_EDGE('',*,*,#262,.T.);
#169=ORIENTED_EDGE('',*,*,#247,.F.);
#170=ORIENTED_EDGE('',*,*,#262,.F.);
#171=ORIENTED_EDGE('',*,*,#263,.T.);
#172=ORIENTED_EDGE('',*,*,#248,.T.);
#173=ORIENTED_EDGE('',*,*,#249,.F.);
#174=ORIENTED_EDGE('',*,*,#263,.F.);
#175=ORIENTED_EDGE('',*,*,#261,.T.);
#176=ORIENTED_EDGE('',*,*,#259,.F.);
#177=ORIENTED_EDGE('',*,*,#257,.T.);
#178=ORIENTED_EDGE('',*,*,#255,.F.);
#179=ORIENTED_EDGE('',*,*,#253,.F.);
#180=ORIENTED_EDGE('',*,*,#251,.F.);
#181=ORIENTED_EDGE('',*,*,#264,.T.);
#182=ORIENTED_EDGE('',*,*,#239,.F.);
#183=ORIENTED_EDGE('',*,*,#265,.F.);
#184=ORIENTED_EDGE('',*,*,#264,.F.);
#185=ORIENTED_EDGE('',*,*,#266,.T.);
#186=ORIENTED_EDGE('',*,*,#265,.T.);
#187=ORIENTED_EDGE('',*,*,#237,.T.);
#188=ORIENTED_EDGE('',*,*,#266,.F.);
#189=EDGE_CURVE('',#267,#268,#321,.T.);
#190=EDGE_CURVE('',#269,#267,#322,.T.);
#191=EDGE_CURVE('',#269,#270,#323,.T.);
#192=EDGE_CURVE('',#270,#268,#324,.T.);
#193=EDGE_CURVE('',#267,#271,#325,.T.);
#194=EDGE_CURVE('',#272,#271,#326,.T.);
#195=EDGE_CURVE('',#269,#272,#327,.T.);
#196=EDGE_CURVE('',#271,#273,#328,.T.);
#197=EDGE_CURVE('',#274,#273,#329,.T.);
#198=EDGE_CURVE('',#272,#274,#330,.T.);
#199=EDGE_CURVE('',#275,#273,#331,.T.);
#200=EDGE_CURVE('',#276,#275,#332,.T.);
#201=EDGE_CURVE('',#276,#274,#333,.T.);
#202=EDGE_CURVE('',#275,#277,#334,.T.);
#203=EDGE_CURVE('',#278,#277,#335,.T.);
#204=EDGE_CURVE('',#276,#278,#336,.T.);
#205=EDGE_CURVE('',#277,#279,#337,.T.);
#206=EDGE_CURVE('',#280,#279,#338,.T.);
#207=EDGE_CURVE('',#278,#280,#339,.T.);
#208=EDGE_CURVE('',#281,#279,#340,.T.);
#209=EDGE_CURVE('',#282,#281,#341,.T.);
#210=EDGE_CURVE('',#282,#280,#342,.T.);
#211=EDGE_CURVE('',#283,#281,#343,.T.);
#212=EDGE_CURVE('',#284,#283,#344,.T.);
#213=EDGE_CURVE('',#284,#282,#345,.T.);
#214=EDGE_CURVE('',#283,#285,#346,.T.);
#215=EDGE_CURVE('',#286,#285,#347,.T.);
#216=EDGE_CURVE('',#284,#286,#348,.T.);
#217=EDGE_CURVE('',#287,#285,#349,.T.);
#218=EDGE_CURVE('',#288,#287,#350,.T.);
#219=EDGE_CURVE('',#288,#286,#351,.T.);
#220=EDGE_CURVE('',#289,#287,#352,.T.);
#221=EDGE_CURVE('',#290,#289,#353,.T.);
#222=EDGE_CURVE('',#290,#288,#354,.T.);
#223=EDGE_CURVE('',#289,#291,#355,.T.);
#224=EDGE_CURVE('',#292,#291,#356,.T.);
#225=EDGE_CURVE('',#290,#292,#357,.T.);
#226=EDGE_CURVE('',#293,#291,#358,.T.);
#227=EDGE_CURVE('',#294,#293,#359,.T.);
#228=EDGE_CURVE('',#294,#292,#360,.T.);
#229=EDGE_CURVE('',#293,#295,#361,.T.);
#230=EDGE_CURVE('',#296,#295,#362,.T.);
#231=EDGE_CURVE('',#294,#296,#363,.T.);
#232=EDGE_CURVE('',#295,#297,#364,.T.);
#233=EDGE_CURVE('',#298,#297,#365,.T.);
#234=EDGE_CURVE('',#296,#298,#366,.T.);
#235=EDGE_CURVE('',#268,#297,#367,.T.);
#236=EDGE_CURVE('',#270,#298,#368,.T.);
#237=EDGE_CURVE('',#299,#299,#12,.T.);
#238=EDGE_CURVE('',#300,#300,#13,.T.);
#239=EDGE_CURVE('',#301,#301,#14,.T.);
#240=EDGE_CURVE('',#302,#303,#369,.T.);
#241=EDGE_CURVE('',#303,#304,#15,.T.);
#242=EDGE_CURVE('',#304,#305,#370,.T.);
#243=EDGE_CURVE('',#305,#306,#16,.T.);
#244=EDGE_CURVE('',#307,#306,#371,.T.);
#245=EDGE_CURVE('',#307,#308,#17,.T.);
#246=EDGE_CURVE('',#309,#308,#372,.T.);
#247=EDGE_CURVE('',#309,#302,#18,.T.);
#248=EDGE_CURVE('',#310,#302,#373,.T.);
#249=EDGE_CURVE('',#310,#311,#374,.T.);
#250=EDGE_CURVE('',#311,#303,#375,.T.);
#251=EDGE_CURVE('',#311,#312,#19,.T.);
#252=EDGE_CURVE('',#312,#304,#376,.T.);
#253=EDGE_CURVE('',#312,#313,#377,.T.);
#254=EDGE_CURVE('',#313,#305,#378,.T.);
#255=EDGE_CURVE('',#313,#314,#20,.T.);
#256=EDGE_CURVE('',#314,#306,#379,.T.);
#257=EDGE_CURVE('',#315,#314,#380,.T.);
#258=EDGE_CURVE('',#315,#307,#381,.T.);
#259=EDGE_CURVE('',#315,#316,#21,.T.);
#260=EDGE_CURVE('',#316,#308,#382,.T.);
#261=EDGE_CURVE('',#317,#316,#383,.T.);
#262=EDGE_CURVE('',#317,#309,#384,.T.);
#263=EDGE_CURVE('',#317,#310,#22,.T.);
#264=EDGE_CURVE('',#318,#318,#23,.T.);
#265=EDGE_CURVE('',#319,#319,#24,.F.);
#266=EDGE_CURVE('',#320,#320,#25,.T.);
#267=VERTEX_POINT('',#806);
#268=VERTEX_POINT('',#807);
#269=VERTEX_POINT('',#809);
#270=VERTEX_POINT('',#811);
#271=VERTEX_POINT('',#815);
#272=VERTEX_POINT('',#817);
#273=VERTEX_POINT('',#821);
#274=VERTEX_POINT('',#823);
#275=VERTEX_POINT('',#827);
#276=VERTEX_POINT('',#829);
#277=VERTEX_POINT('',#833);
#278=VERTEX_POINT('',#835);
#279=VERTEX_POINT('',#839);
#280=VERTEX_POINT('',#841);
#281=VERTEX_POINT('',#845);
#282=VERTEX_POINT('',#847);
#283=VERTEX_POINT('',#851);
#284=VERTEX_POINT('',#853);
#285=VERTEX_POINT('',#857);
#286=VERTEX_POINT('',#859);
#287=VERTEX_POINT('',#863);
#288=VERTEX_POINT('',#865);
#289=VERTEX_POINT('',#869);
#290=VERTEX_POINT('',#871);
#291=VERTEX_POINT('',#875);
#292=VERTEX_POINT('',#877);
#293=VERTEX_POINT('',#881);
#294=VERTEX_POINT('',#883);
#295=VERTEX_POINT('',#887);
#296=VERTEX_POINT('',#889);
#297=VERTEX_POINT('',#893);
#298=VERTEX_POINT('',#895);
#299=VERTEX_POINT('',#902);
#300=VERTEX_POINT('',#904);
#301=VERTEX_POINT('',#908);
#302=VERTEX_POINT('',#910);
#303=VERTEX_POINT('',#911);
#304=VERTEX_POINT('',#913);
#305=VERTEX_POINT('',#915);
#306=VERTEX_POINT('',#917);
#307=VERTEX_POINT('',#919);
#308=VERTEX_POINT('',#921);
#309=VERTEX_POINT('',#923);
#310=VERTEX_POINT('',#927);
#311=VERTEX_POINT('',#929);
#312=VERTEX_POINT('',#933);
#313=VERTEX_POINT('',#937);
#314=VERTEX_POINT('',#941);
#315=VERTEX_POINT('',#945);
#316=VERTEX_POINT('',#949);
#317=VERTEX_POINT('',#953);
#318=VERTEX_POINT('',#960);
#319=VERTEX_POINT('',#963);
#320=VERTEX_POINT('',#966);
#321=LINE('',#805,#385);
#322=LINE('',#808,#386);
#323=LINE('',#810,#387);
#324=LINE('',#812,#388);
#325=LINE('',#814,#389);
#326=LINE('',#816,#390);
#327=LINE('',#818,#391);
#328=LINE('',#820,#392);
#329=LINE('',#822,#393);
#330=LINE('',#824,#394);
#331=LINE('',#826,#395);
#332=LINE('',#828,#396);
#333=LINE('',#830,#397);
#334=LINE('',#832,#398);
#335=LINE('',#834,#399);
#336=LINE('',#836,#400);
#337=LINE('',#838,#401);
#338=LINE('',#840,#402);
#339=LINE('',#842,#403);
#340=LINE('',#844,#404);
#341=LINE('',#846,#405);
#342=LINE('',#848,#406);
#343=LINE('',#850,#407);
#344=LINE('',#852,#408);
#345=LINE('',#854,#409);
#346=LINE('',#856,#410);
#347=LINE('',#858,#411);
#348=LINE('',#860,#412);
#349=LINE('',#862,#413);
#350=LINE('',#864,#414);
#351=LINE('',#866,#415);
#352=LINE('',#868,#416);
#353=LINE('',#870,#417);
#354=LINE('',#872,#418);
#355=LINE('',#874,#419);
#356=LINE('',#876,#420);
#357=LINE('',#878,#421);
#358=LINE('',#880,#422);
#359=LINE('',#882,#423);
#360=LINE('',#884,#424);
#361=LINE('',#886,#425);
#362=LINE('',#888,#426);
#363=LINE('',#890,#427);
#364=LINE('',#892,#428);
#365=LINE('',#894,#429);
#366=LINE('',#896,#430);
#367=LINE('',#898,#431);
#368=LINE('',#899,#432);
#369=LINE('',#909,#433);
#370=LINE('',#914,#434);
#371=LINE('',#918,#435);
#372=LINE('',#922,#436);
#373=LINE('',#926,#437);
#374=LINE('',#928,#438);
#375=LINE('',#930,#439);
#376=LINE('',#934,#440);
#377=LINE('',#936,#441);
#378=LINE('',#938,#442);
#379=LINE('',#942,#443);
#380=LINE('',#944,#444);
#381=LINE('',#946,#445);
#382=LINE('',#950,#446);
#383=LINE('',#952,#447);
#384=LINE('',#954,#448);
#385=VECTOR('',#649,1.);
#386=VECTOR('',#650,1.);
#387=VECTOR('',#651,1.);
#388=VECTOR('',#652,1.);
#389=VECTOR('',#655,1.);
#390=VECTOR('',#656,1.);
#391=VECTOR('',#657,1.);
#392=VECTOR('',#660,1.);
#393=VECTOR('',#661,1.);
#394=VECTOR('',#662,1.);
#395=VECTOR('',#665,1.);
#396=VECTOR('',#666,1.);
#397=VECTOR('',#667,1.);
#398=VECTOR('',#670,1.);
#399=VECTOR('',#671,1.);
#400=VECTOR('',#672,1.);
#401=VECTOR('',#675,1.);
#402=VECTOR('',#676,1.);
#403=VECTOR('',#677,1.);
#404=VECTOR('',#680,1.);
#405=VECTOR('',#681,1.);
#406=VECTOR('',#682,1.);
#407=VECTOR('',#685,1.);
#408=VECTOR('',#686,1.);
#409=VECTOR('',#687,1.);
#410=VECTOR('',#690,1.);
#411=VECTOR('',#691,1.);
#412=VECTOR('',#692,1.);
#413=VECTOR('',#695,1.);
#414=VECTOR('',#696,1.);
#415=VECTOR('',#697,1.);
#416=VECTOR('',#700,1.);
#417=VECTOR('',#701,1.);
#418=VECTOR('',#702,1.);
#419=VECTOR('',#705,1.);
#420=VECTOR('',#706,1.);
#421=VECTOR('',#707,1.);
#422=VECTOR('',#710,1.);
#423=VECTOR('',#711,1.);
#424=VECTOR('',#712,1.);
#425=VECTOR('',#715,1.);
#426=VECTOR('',#716,1.);
#427=VECTOR('',#717,1.);
#428=VECTOR('',#720,1.);
#429=VECTOR('',#721,1.);
#430=VECTOR('',#722,1.);
#431=VECTOR('',#725,1.);
#432=VECTOR('',#726,1.);
#433=VECTOR('',#739,1.);
#434=VECTOR('',#742,1.);
#435=VECTOR('',#745,1.);
#436=VECTOR('',#748,1.);
#437=VECTOR('',#753,1.);
#438=VECTOR('',#754,1.);
#439=VECTOR('',#755,1.);
#440=VECTOR('',#760,1.);
#441=VECTOR('',#763,1.);
#442=VECTOR('',#764,1.);
#443=VECTOR('',#769,1.);
#444=VECTOR('',#772,1.);
#445=VECTOR('',#773,1.);
#446=VECTOR('',#778,1.);
#447=VECTOR('',#781,1.);
#448=VECTOR('',#782,1.);
#449=EDGE_LOOP('',(#33,#34,#35,#36));
#450=EDGE_LOOP('',(#37,#38,#39,#40));
#451=EDGE_LOOP('',(#41,#42,#43,#44));
#452=EDGE_LOOP('',(#45,#46,#47,#48));
#453=EDGE_LOOP('',(#49,#50,#51,#52));
#454=EDGE_LOOP('',(#53,#54,#55,#56));
#455=EDGE_LOOP('',(#57,#58,#59,#60));
#456=EDGE_LOOP('',(#61,#62,#63,#64));
#457=EDGE_LOOP('',(#65,#66,#67,#68));
#458=EDGE_LOOP('',(#69,#70,#71,#72));
#459=EDGE_LOOP('',(#73,#74,#75,#76));
#460=EDGE_LOOP('',(#77,#78,#79,#80));
#461=EDGE_LOOP('',(#81,#82,#83,#84));
#462=EDGE_LOOP('',(#85,#86,#87,#88));
#463=EDGE_LOOP('',(#89,#90,#91,#92));
#464=EDGE_LOOP('',(#93,#94,#95,#96));
#465=EDGE_LOOP('',(#97));
#466=EDGE_LOOP('',(#98));
#467=EDGE_LOOP('',(#99,#100,#101,#102,#103,#104,#105,#106,#107,#108,#109,
#110,#111,#112,#113,#114));
#468=EDGE_LOOP('',(#115));
#469=EDGE_LOOP('',(#116));
#470=EDGE_LOOP('',(#117,#118,#119,#120,#121,#122,#123,#124));
#471=EDGE_LOOP('',(#125,#126,#127,#128,#129,#130,#131,#132,#133,#134,#135,
#136,#137,#138,#139,#140));
#472=EDGE_LOOP('',(#141,#142,#143,#144));
#473=EDGE_LOOP('',(#145,#146,#147,#148));
#474=EDGE_LOOP('',(#149,#150,#151,#152));
#475=EDGE_LOOP('',(#153,#154,#155,#156));
#476=EDGE_LOOP('',(#157,#158,#159,#160));
#477=EDGE_LOOP('',(#161,#162,#163,#164));
#478=EDGE_LOOP('',(#165,#166,#167,#168));
#479=EDGE_LOOP('',(#169,#170,#171,#172));
#480=EDGE_LOOP('',(#173,#174,#175,#176,#177,#178,#179,#180));
#481=EDGE_LOOP('',(#181));
#482=EDGE_LOOP('',(#182));
#483=EDGE_LOOP('',(#183));
#484=EDGE_LOOP('',(#184));
#485=EDGE_LOOP('',(#185));
#486=EDGE_LOOP('',(#186));
#487=EDGE_LOOP('',(#187));
#488=EDGE_LOOP('',(#188));
#489=FACE_BOUND('',#449,.T.);
#490=FACE_BOUND('',#450,.T.);
#491=FACE_BOUND('',#451,.T.);
#492=FACE_BOUND('',#452,.T.);
#493=FACE_BOUND('',#453,.T.);
#494=FACE_BOUND('',#454,.T.);
#495=FACE_BOUND('',#455,.T.);
#496=FACE_BOUND('',#456,.T.);
#497=FACE_BOUND('',#457,.T.);
#498=FACE_BOUND('',#458,.T.);
#499=FACE_BOUND('',#459,.T.);
#500=FACE_BOUND('',#460,.T.);
#501=FACE_BOUND('',#461,.T.);
#502=FACE_BOUND('',#462,.T.);
#503=FACE_BOUND('',#463,.T.);
#504=FACE_BOUND('',#464,.T.);
#505=FACE_BOUND('',#465,.T.);
#506=FACE_BOUND('',#466,.T.);
#507=FACE_BOUND('',#467,.T.);
#508=FACE_BOUND('',#468,.T.);
#509=FACE_BOUND('',#469,.T.);
#510=FACE_BOUND('',#470,.T.);
#511=FACE_BOUND('',#471,.T.);
#512=FACE_BOUND('',#472,.T.);
#513=FACE_BOUND('',#473,.T.);
#514=FACE_BOUND('',#474,.T.);
#515=FACE_BOUND('',#475,.T.);
#516=FACE_BOUND('',#476,.T.);
#517=FACE_BOUND('',#477,.T.);
#518=FACE_BOUND('',#478,.T.);
#519=FACE_BOUND('',#479,.T.);
#520=FACE_BOUND('',#480,.T.);
#521=FACE_BOUND('',#481,.T.);
#522=FACE_BOUND('',#482,.T.);
#523=FACE_BOUND('',#483,.T.);
#524=FACE_BOUND('',#484,.T.);
#525=FACE_BOUND('',#485,.T.);
#526=FACE_BOUND('',#486,.T.);
#527=FACE_BOUND('',#487,.T.);
#528=FACE_BOUND('',#488,.T.);
#529=PLANE('',#599);
#530=PLANE('',#600);
#531=PLANE('',#601);
#532=PLANE('',#602);
#533=PLANE('',#603);
#534=PLANE('',#604);
#535=PLANE('',#605);
#536=PLANE('',#606);
#537=PLANE('',#607);
#538=PLANE('',#608);
#539=PLANE('',#609);
#540=PLANE('',#610);
#541=PLANE('',#611);
#542=PLANE('',#612);
#543=PLANE('',#613);
#544=PLANE('',#614);
#545=PLANE('',#618);
#546=PLANE('',#619);
#547=PLANE('',#625);
#548=PLANE('',#628);
#549=PLANE('',#631);
#550=PLANE('',#634);
#551=PLANE('',#637);
#552=PLANE('',#640);
#553=PLANE('',#644);
#554=ADVANCED_FACE('',(#489),#529,.T.);
#555=ADVANCED_FACE('',(#490),#530,.F.);
#556=ADVANCED_FACE('',(#491),#531,.F.);
#557=ADVANCED_FACE('',(#492),#532,.T.);
#558=ADVANCED_FACE('',(#493),#533,.F.);
#559=ADVANCED_FACE('',(#494),#534,.F.);
#560=ADVANCED_FACE('',(#495),#535,.T.);
#561=ADVANCED_FACE('',(#496),#536,.T.);
#562=ADVANCED_FACE('',(#497),#537,.F.);
#563=ADVANCED_FACE('',(#498),#538,.T.);
#564=ADVANCED_FACE('',(#499),#539,.T.);
#565=ADVANCED_FACE('',(#500),#540,.F.);
#566=ADVANCED_FACE('',(#501),#541,.T.);
#567=ADVANCED_FACE('',(#502),#542,.F.);
#568=ADVANCED_FACE('',(#503),#543,.F.);
#569=ADVANCED_FACE('',(#504),#544,.T.);
#570=ADVANCED_FACE('',(#505,#506),#26,.F.);
#571=ADVANCED_FACE('',(#507,#508),#545,.T.);
#572=ADVANCED_FACE('',(#509,#510,#511),#546,.F.);
#573=ADVANCED_FACE('',(#512),#547,.T.);
#574=ADVANCED_FACE('',(#513),#27,.F.);
#575=ADVANCED_FACE('',(#514),#548,.T.);
#576=ADVANCED_FACE('',(#515),#28,.F.);
#577=ADVANCED_FACE('',(#516),#549,.F.);
#578=ADVANCED_FACE('',(#517),#29,.F.);
#579=ADVANCED_FACE('',(#518),#550,.F.);
#580=ADVANCED_FACE('',(#519),#30,.F.);
#581=ADVANCED_FACE('',(#520),#551,.F.);
#582=ADVANCED_FACE('',(#521,#522),#31,.F.);
#583=ADVANCED_FACE('',(#523,#524),#552,.F.);
#584=ADVANCED_FACE('',(#525,#526),#32,.F.);
#585=ADVANCED_FACE('',(#527,#528),#553,.F.);
#586=CLOSED_SHELL('',(#554,#555,#556,#557,#558,#559,#560,#561,#562,#563,
#564,#565,#566,#567,#568,#569,#570,#571,#572,#573,#574,#575,#576,#577,#578,
#579,#580,#581,#582,#583,#584,#585));
#587=STYLED_ITEM('',(#588),#595);
#588=PRESENTATION_STYLE_ASSIGNMENT((#589));
#589=SURFACE_STYLE_USAGE(.BOTH.,#590);
#590=SURFACE_SIDE_STYLE('',(#591));
#591=SURFACE_STYLE_FILL_AREA(#592);
#592=FILL_AREA_STYLE('',(#593));
#593=FILL_AREA_STYLE_COLOUR('',#594);
#594=COLOUR_RGB('',0.917647058823529,0.917647058823529,0.917647058823529);
#595=MANIFOLD_SOLID_BREP('Ramp',#586);
#596=SHAPE_DEFINITION_REPRESENTATION(#974,#597);
#597=SHAPE_REPRESENTATION('Ramp',(#598),#969);
#598=AXIS2_PLACEMENT_3D('',#803,#645,#646);
#599=AXIS2_PLACEMENT_3D('',#804,#647,#648);
#600=AXIS2_PLACEMENT_3D('',#813,#653,#654);
#601=AXIS2_PLACEMENT_3D('',#819,#658,#659);
#602=AXIS2_PLACEMENT_3D('',#825,#663,#664);
#603=AXIS2_PLACEMENT_3D('',#831,#668,#669);
#604=AXIS2_PLACEMENT_3D('',#837,#673,#674);
#605=AXIS2_PLACEMENT_3D('',#843,#678,#679);
#606=AXIS2_PLACEMENT_3D('',#849,#683,#684);
#607=AXIS2_PLACEMENT_3D('',#855,#688,#689);
#608=AXIS2_PLACEMENT_3D('',#861,#693,#694);
#609=AXIS2_PLACEMENT_3D('',#867,#698,#699);
#610=AXIS2_PLACEMENT_3D('',#873,#703,#704);
#611=AXIS2_PLACEMENT_3D('',#879,#708,#709);
#612=AXIS2_PLACEMENT_3D('',#885,#713,#714);
#613=AXIS2_PLACEMENT_3D('',#891,#718,#719);
#614=AXIS2_PLACEMENT_3D('',#897,#723,#724);
#615=AXIS2_PLACEMENT_3D('',#900,#727,#728);
#616=AXIS2_PLACEMENT_3D('',#901,#729,#730);
#617=AXIS2_PLACEMENT_3D('',#903,#731,#732);
#618=AXIS2_PLACEMENT_3D('',#905,#733,#734);
#619=AXIS2_PLACEMENT_3D('',#906,#735,#736);
#620=AXIS2_PLACEMENT_3D('',#907,#737,#738);
#621=AXIS2_PLACEMENT_3D('',#912,#740,#741);
#622=AXIS2_PLACEMENT_3D('',#916,#743,#744);
#623=AXIS2_PLACEMENT_3D('',#920,#746,#747);
#624=AXIS2_PLACEMENT_3D('',#924,#749,#750);
#625=AXIS2_PLACEMENT_3D('',#925,#751,#752);
#626=AXIS2_PLACEMENT_3D('',#931,#756,#757);
#627=AXIS2_PLACEMENT_3D('',#932,#758,#759);
#628=AXIS2_PLACEMENT_3D('',#935,#761,#762);
#629=AXIS2_PLACEMENT_3D('',#939,#765,#766);
#630=AXIS2_PLACEMENT_3D('',#940,#767,#768);
#631=AXIS2_PLACEMENT_3D('',#943,#770,#771);
#632=AXIS2_PLACEMENT_3D('',#947,#774,#775);
#633=AXIS2_PLACEMENT_3D('',#948,#776,#777);
#634=AXIS2_PLACEMENT_3D('',#951,#779,#780);
#635=AXIS2_PLACEMENT_3D('',#955,#783,#784);
#636=AXIS2_PLACEMENT_3D('',#956,#785,#786);
#637=AXIS2_PLACEMENT_3D('',#957,#787,#788);
#638=AXIS2_PLACEMENT_3D('',#958,#789,#790);
#639=AXIS2_PLACEMENT_3D('',#959,#791,#792);
#640=AXIS2_PLACEMENT_3D('',#961,#793,#794);
#641=AXIS2_PLACEMENT_3D('',#962,#795,#796);
#642=AXIS2_PLACEMENT_3D('',#964,#797,#798);
#643=AXIS2_PLACEMENT_3D('',#965,#799,#800);
#644=AXIS2_PLACEMENT_3D('',#967,#801,#802);
#645=DIRECTION('',(0.,0.,1.));
#646=DIRECTION('',(1.,0.,0.));
#647=DIRECTION('',(0.,1.,0.));
#648=DIRECTION('',(0.,0.,1.));
#649=DIRECTION('',(1.,0.,0.));
#650=DIRECTION('',(0.,0.,-1.));
#651=DIRECTION('',(1.,0.,0.));
#652=DIRECTION('',(0.,0.,-1.));
#653=DIRECTION('',(1.,0.,0.));
#654=DIRECTION('',(0.,0.,-1.));
#655=DIRECTION('',(0.,-1.,0.));
#656=DIRECTION('',(0.,0.,-1.));
#657=DIRECTION('',(0.,-1.,0.));
#658=DIRECTION('',(0.,1.,0.));
#659=DIRECTION('',(0.,0.,1.));
#660=DIRECTION('',(1.,0.,0.));
#661=DIRECTION('',(0.,0.,-1.));
#662=DIRECTION('',(1.,0.,0.));
#663=DIRECTION('',(1.,0.,0.));
#664=DIRECTION('',(0.,0.,-1.));
#665=DIRECTION('',(0.,-1.,0.));
#666=DIRECTION('',(0.,0.,-1.));
#667=DIRECTION('',(0.,-1.,0.));
#668=DIRECTION('',(0.,-1.,0.));
#669=DIRECTION('',(0.,0.,-1.));
#670=DIRECTION('',(-1.,0.,0.));
#671=DIRECTION('',(0.,0.,-1.));
#672=DIRECTION('',(-1.,0.,0.));
#673=DIRECTION('',(-1.,-1.90479440499414E-16,0.));
#674=DIRECTION('',(1.90479440499414E-16,-1.,0.));
#675=DIRECTION('',(-1.90479440499414E-16,1.,0.));
#676=DIRECTION('',(0.,0.,-1.));
#677=DIRECTION('',(-1.90479440499414E-16,1.,0.));
#678=DIRECTION('',(0.,-1.,0.));
#679=DIRECTION('',(0.,0.,-1.));
#680=DIRECTION('',(-1.,0.,0.));
#681=DIRECTION('',(0.,0.,-1.));
#682=DIRECTION('',(-1.,0.,0.));
#683=DIRECTION('',(1.,0.,0.));
#684=DIRECTION('',(0.,0.,-1.));
#685=DIRECTION('',(0.,-1.,0.));
#686=DIRECTION('',(0.,0.,-1.));
#687=DIRECTION('',(0.,-1.,0.));
#688=DIRECTION('',(0.,-1.,0.));
#689=DIRECTION('',(0.,0.,-1.));
#690=DIRECTION('',(-1.,0.,0.));
#691=DIRECTION('',(0.,0.,-1.));
#692=DIRECTION('',(-1.,0.,0.));
#693=DIRECTION('',(1.,2.77555756156289E-16,0.));
#694=DIRECTION('',(-2.77555756156289E-16,1.,0.));
#695=DIRECTION('',(2.77555756156289E-16,-1.,0.));
#696=DIRECTION('',(0.,0.,-1.));
#697=DIRECTION('',(2.77555756156289E-16,-1.,0.));
#698=DIRECTION('',(0.,1.,0.));
#699=DIRECTION('',(0.,0.,1.));
#700=DIRECTION('',(1.,0.,0.));
#701=DIRECTION('',(0.,0.,-1.));
#702=DIRECTION('',(1.,0.,0.));
#703=DIRECTION('',(1.,2.77555756156289E-16,0.));
#704=DIRECTION('',(-2.77555756156289E-16,1.,0.));
#705=DIRECTION('',(2.77555756156289E-16,-1.,0.));
#706=DIRECTION('',(0.,0.,-1.));
#707=DIRECTION('',(2.77555756156289E-16,-1.,0.));
#708=DIRECTION('',(0.,1.,0.));
#709=DIRECTION('',(0.,0.,1.));
#710=DIRECTION('',(1.,0.,0.));
#711=DIRECTION('',(0.,0.,-1.));
#712=DIRECTION('',(1.,0.,0.));
#713=DIRECTION('',(1.,0.,0.));
#714=DIRECTION('',(0.,0.,-1.));
#715=DIRECTION('',(0.,-1.,0.));
#716=DIRECTION('',(0.,0.,-1.));
#717=DIRECTION('',(0.,-1.,0.));
#718=DIRECTION('',(0.,1.,0.));
#719=DIRECTION('',(0.,0.,1.));
#720=DIRECTION('',(1.,0.,0.));
#721=DIRECTION('',(0.,0.,-1.));
#722=DIRECTION('',(1.,0.,0.));
#723=DIRECTION('',(-1.,-1.6326809185664E-16,0.));
#724=DIRECTION('',(1.6326809185664E-16,-1.,0.));
#725=DIRECTION('',(-1.6326809185664E-16,1.,0.));
#726=DIRECTION('',(-1.6326809185664E-16,1.,0.));
#727=DIRECTION('',(0.,0.,-1.));
#728=DIRECTION('',(-1.,0.,0.));
#729=DIRECTION('',(0.,0.,1.));
#730=DIRECTION('',(1.,0.,0.));
#731=DIRECTION('',(0.,0.,1.));
#732=DIRECTION('',(1.,0.,0.));
#733=DIRECTION('',(0.,0.,1.));
#734=DIRECTION('',(1.,0.,0.));
#735=DIRECTION('',(0.,0.,1.));
#736=DIRECTION('',(1.,0.,0.));
#737=DIRECTION('',(0.,0.,1.));
#738=DIRECTION('',(1.,0.,0.));
#739=DIRECTION('',(-2.47817639425258E-16,-1.,0.));
#740=DIRECTION('',(0.,0.,1.));
#741=DIRECTION('',(1.,0.,0.));
#742=DIRECTION('',(1.,0.,0.));
#743=DIRECTION('',(0.,0.,1.));
#744=DIRECTION('',(1.,0.,0.));
#745=DIRECTION('',(-2.47817639425258E-16,-1.,0.));
#746=DIRECTION('',(0.,0.,1.));
#747=DIRECTION('',(1.,0.,0.));
#748=DIRECTION('',(1.,0.,0.));
#749=DIRECTION('',(0.,0.,1.));
#750=DIRECTION('',(1.,0.,0.));
#751=DIRECTION('',(1.,-2.47817639425258E-16,0.));
#752=DIRECTION('',(2.47817639425258E-16,1.,0.));
#753=DIRECTION('',(0.,0.,-1.));
#754=DIRECTION('',(-2.47817639425258E-16,-1.,0.));
#755=DIRECTION('',(0.,0.,-1.));
#756=DIRECTION('',(0.,0.,-1.));
#757=DIRECTION('',(-1.,0.,0.));
#758=DIRECTION('',(0.,0.,1.));
#759=DIRECTION('',(1.,0.,0.));
#760=DIRECTION('',(0.,0.,-1.));
#761=DIRECTION('',(0.,1.,0.));
#762=DIRECTION('',(0.,0.,1.));
#763=DIRECTION('',(1.,0.,0.));
#764=DIRECTION('',(0.,0.,-1.));
#765=DIRECTION('',(0.,0.,-1.));
#766=DIRECTION('',(-1.,0.,0.));
#767=DIRECTION('',(0.,0.,1.));
#768=DIRECTION('',(1.,0.,0.));
#769=DIRECTION('',(0.,0.,-1.));
#770=DIRECTION('',(1.,-2.47817639425258E-16,0.));
#771=DIRECTION('',(2.47817639425258E-16,1.,0.));
#772=DIRECTION('',(-2.47817639425258E-16,-1.,0.));
#773=DIRECTION('',(0.,0.,-1.));
#774=DIRECTION('',(0.,0.,-1.));
#775=DIRECTION('',(-1.,0.,0.));
#776=DIRECTION('',(0.,0.,1.));
#777=DIRECTION('',(1.,0.,0.));
#778=DIRECTION('',(0.,0.,-1.));
#779=DIRECTION('',(0.,1.,0.));
#780=DIRECTION('',(0.,0.,1.));
#781=DIRECTION('',(1.,0.,0.));
#782=DIRECTION('',(0.,0.,-1.));
#783=DIRECTION('',(0.,0.,-1.));
#784=DIRECTION('',(-1.,0.,0.));
#785=DIRECTION('',(0.,0.,1.));
#786=DIRECTION('',(1.,0.,0.));
#787=DIRECTION('',(0.,0.,1.));
#788=DIRECTION('',(1.,0.,0.));
#789=DIRECTION('',(0.,0.,-1.));
#790=DIRECTION('',(-1.,0.,0.));
#791=DIRECTION('',(0.,0.,1.));
#792=DIRECTION('',(1.,0.,0.));
#793=DIRECTION('',(0.,0.,1.));
#794=DIRECTION('',(1.,0.,0.));
#795=DIRECTION('',(0.,0.,1.));
#796=DIRECTION('',(1.,0.,0.));
#797=DIRECTION('',(0.,0.,-1.));
#798=DIRECTION('',(-1.,0.,0.));
#799=DIRECTION('',(0.,0.,1.));
#800=DIRECTION('',(1.,0.,0.));
#801=DIRECTION('',(0.,0.,1.));
#802=DIRECTION('',(1.,0.,0.));
#803=CARTESIAN_POINT('',(0.,0.,0.));
#804=CARTESIAN_POINT('',(-0.0385,-0.14,0.0053));
#805=CARTESIAN_POINT('',(-0.0385,-0.14,0.));
#806=CARTESIAN_POINT('',(-0.04,-0.14,0.));
#807=CARTESIAN_POINT('',(-0.037,-0.14,0.));
#808=CARTESIAN_POINT('',(-0.04,-0.14,0.0053));
#809=CARTESIAN_POINT('',(-0.04,-0.14,0.0053));
#810=CARTESIAN_POINT('',(-0.0385,-0.14,0.0053));
#811=CARTESIAN_POINT('',(-0.037,-0.14,0.0053));
#812=CARTESIAN_POINT('',(-0.037,-0.14,0.0053));
#813=CARTESIAN_POINT('',(-0.04,-0.15,0.0053));
#814=CARTESIAN_POINT('',(-0.04,-0.15,0.));
#815=CARTESIAN_POINT('',(-0.04,-0.16,0.));
#816=CARTESIAN_POINT('',(-0.04,-0.16,0.0053));
#817=CARTESIAN_POINT('',(-0.04,-0.16,0.0053));
#818=CARTESIAN_POINT('',(-0.04,-0.15,0.0053));
#819=CARTESIAN_POINT('',(2.08166817117217E-17,-0.16,0.0053));
#820=CARTESIAN_POINT('',(2.08166817117217E-17,-0.16,0.));
#821=CARTESIAN_POINT('',(0.04,-0.16,0.));
#822=CARTESIAN_POINT('',(0.04,-0.16,0.0053));
#823=CARTESIAN_POINT('',(0.04,-0.16,0.0053));
#824=CARTESIAN_POINT('',(2.08166817117217E-17,-0.16,0.0053));
#825=CARTESIAN_POINT('',(0.04,-0.15,0.0053));
#826=CARTESIAN_POINT('',(0.04,-0.15,0.));
#827=CARTESIAN_POINT('',(0.04,-0.14,0.));
#828=CARTESIAN_POINT('',(0.04,-0.14,0.0053));
#829=CARTESIAN_POINT('',(0.04,-0.14,0.0053));
#830=CARTESIAN_POINT('',(0.04,-0.15,0.0053));
#831=CARTESIAN_POINT('',(0.0385,-0.14,0.0053));
#832=CARTESIAN_POINT('',(0.0385,-0.14,0.));
#833=CARTESIAN_POINT('',(0.037,-0.14,0.));
#834=CARTESIAN_POINT('',(0.037,-0.14,0.0053));
#835=CARTESIAN_POINT('',(0.037,-0.14,0.0053));
#836=CARTESIAN_POINT('',(0.0385,-0.14,0.0053));
#837=CARTESIAN_POINT('',(0.037,-0.0125,0.0053));
#838=CARTESIAN_POINT('',(0.037,-0.0125,0.));
#839=CARTESIAN_POINT('',(0.037,0.115,0.));
#840=CARTESIAN_POINT('',(0.037,0.115,0.0053));
#841=CARTESIAN_POINT('',(0.037,0.115,0.0053));
#842=CARTESIAN_POINT('',(0.037,-0.0125,0.0053));
#843=CARTESIAN_POINT('',(0.0385,0.115,0.0053));
#844=CARTESIAN_POINT('',(0.0385,0.115,0.));
#845=CARTESIAN_POINT('',(0.04,0.115,0.));
#846=CARTESIAN_POINT('',(0.04,0.115,0.0053));
#847=CARTESIAN_POINT('',(0.04,0.115,0.0053));
#848=CARTESIAN_POINT('',(0.0385,0.115,0.0053));
#849=CARTESIAN_POINT('',(0.04,0.125,0.0053));
#850=CARTESIAN_POINT('',(0.04,0.125,0.));
#851=CARTESIAN_POINT('',(0.04,0.135,0.));
#852=CARTESIAN_POINT('',(0.04,0.135,0.0053));
#853=CARTESIAN_POINT('',(0.04,0.135,0.0053));
#854=CARTESIAN_POINT('',(0.04,0.125,0.0053));
#855=CARTESIAN_POINT('',(0.0385,0.135,0.0053));
#856=CARTESIAN_POINT('',(0.0385,0.135,0.));
#857=CARTESIAN_POINT('',(0.037,0.135,0.));
#858=CARTESIAN_POINT('',(0.037,0.135,0.0053));
#859=CARTESIAN_POINT('',(0.037,0.135,0.0053));
#860=CARTESIAN_POINT('',(0.0385,0.135,0.0053));
#861=CARTESIAN_POINT('',(0.037,0.1475,0.0053));
#862=CARTESIAN_POINT('',(0.037,0.1475,0.));
#863=CARTESIAN_POINT('',(0.037,0.16,0.));
#864=CARTESIAN_POINT('',(0.037,0.16,0.0053));
#865=CARTESIAN_POINT('',(0.037,0.16,0.0053));
#866=CARTESIAN_POINT('',(0.037,0.1475,0.0053));
#867=CARTESIAN_POINT('',(-2.08166817117217E-17,0.16,0.0053));
#868=CARTESIAN_POINT('',(-2.08166817117217E-17,0.16,0.));
#869=CARTESIAN_POINT('',(-0.037,0.16,0.));
#870=CARTESIAN_POINT('',(-0.037,0.16,0.0053));
#871=CARTESIAN_POINT('',(-0.037,0.16,0.0053));
#872=CARTESIAN_POINT('',(-2.08166817117217E-17,0.16,0.0053));
#873=CARTESIAN_POINT('',(-0.037,0.1475,0.0053));
#874=CARTESIAN_POINT('',(-0.037,0.1475,0.));
#875=CARTESIAN_POINT('',(-0.037,0.135,0.));
#876=CARTESIAN_POINT('',(-0.037,0.135,0.0053));
#877=CARTESIAN_POINT('',(-0.037,0.135,0.0053));
#878=CARTESIAN_POINT('',(-0.037,0.1475,0.0053));
#879=CARTESIAN_POINT('',(-0.0385,0.135,0.0053));
#880=CARTESIAN_POINT('',(-0.0385,0.135,0.));
#881=CARTESIAN_POINT('',(-0.04,0.135,0.));
#882=CARTESIAN_POINT('',(-0.04,0.135,0.0053));
#883=CARTESIAN_POINT('',(-0.04,0.135,0.0053));
#884=CARTESIAN_POINT('',(-0.0385,0.135,0.0053));
#885=CARTESIAN_POINT('',(-0.04,0.125,0.0053));
#886=CARTESIAN_POINT('',(-0.04,0.125,0.));
#887=CARTESIAN_POINT('',(-0.04,0.115,0.));
#888=CARTESIAN_POINT('',(-0.04,0.115,0.0053));
#889=CARTESIAN_POINT('',(-0.04,0.115,0.0053));
#890=CARTESIAN_POINT('',(-0.04,0.125,0.0053));
#891=CARTESIAN_POINT('',(-0.0385,0.115,0.0053));
#892=CARTESIAN_POINT('',(-0.0385,0.115,0.));
#893=CARTESIAN_POINT('',(-0.037,0.115,0.));
#894=CARTESIAN_POINT('',(-0.037,0.115,0.0053));
#895=CARTESIAN_POINT('',(-0.037,0.115,0.0053));
#896=CARTESIAN_POINT('',(-0.0385,0.115,0.0053));
#897=CARTESIAN_POINT('',(-0.037,-0.0125,0.0053));
#898=CARTESIAN_POINT('',(-0.037,-0.0125,0.));
#899=CARTESIAN_POINT('',(-0.037,-0.0125,0.0053));
#900=CARTESIAN_POINT('',(0.,-0.12,0.0053));
#901=CARTESIAN_POINT('',(0.,-0.12,0.0025));
#902=CARTESIAN_POINT('',(0.003,-0.12,0.0025));
#903=CARTESIAN_POINT('',(0.,-0.12,0.0053));
#904=CARTESIAN_POINT('',(0.003,-0.12,0.0053));
#905=CARTESIAN_POINT('',(1.38777878078145E-17,0.,0.0053));
#906=CARTESIAN_POINT('',(1.38777878078145E-17,0.,0.));
#907=CARTESIAN_POINT('',(0.,-0.12,0.));
#908=CARTESIAN_POINT('',(0.007,-0.12,0.));
#909=CARTESIAN_POINT('',(-0.01,-0.1375,0.));
#910=CARTESIAN_POINT('',(-0.01,-0.1305,0.));
#911=CARTESIAN_POINT('',(-0.01,-0.1445,0.));
#912=CARTESIAN_POINT('',(-0.008,-0.1445,0.));
#913=CARTESIAN_POINT('',(-0.008,-0.1465,0.));
#914=CARTESIAN_POINT('',(-1.7347234759768E-18,-0.1465,0.));
#915=CARTESIAN_POINT('',(0.008,-0.1465,0.));
#916=CARTESIAN_POINT('',(0.008,-0.1445,0.));
#917=CARTESIAN_POINT('',(0.01,-0.1445,0.));
#918=CARTESIAN_POINT('',(0.01,-0.1375,0.));
#919=CARTESIAN_POINT('',(0.01,-0.1305,0.));
#920=CARTESIAN_POINT('',(0.008,-0.1305,0.));
#921=CARTESIAN_POINT('',(0.008,-0.1285,0.));
#922=CARTESIAN_POINT('',(1.7347234759768E-18,-0.1285,0.));
#923=CARTESIAN_POINT('',(-0.008,-0.1285,0.));
#924=CARTESIAN_POINT('',(-0.008,-0.1305,0.));
#925=CARTESIAN_POINT('',(-0.01,-0.1375,0.002));
#926=CARTESIAN_POINT('',(-0.01,-0.1305,0.002));
#927=CARTESIAN_POINT('',(-0.01,-0.1305,0.002));
#928=CARTESIAN_POINT('',(-0.01,-0.1375,0.002));
#929=CARTESIAN_POINT('',(-0.01,-0.1445,0.002));
#930=CARTESIAN_POINT('',(-0.01,-0.1445,0.002));
#931=CARTESIAN_POINT('',(-0.008,-0.1445,0.002));
#932=CARTESIAN_POINT('',(-0.008,-0.1445,0.002));
#933=CARTESIAN_POINT('',(-0.008,-0.1465,0.002));
#934=CARTESIAN_POINT('',(-0.008,-0.1465,0.002));
#935=CARTESIAN_POINT('',(-1.7347234759768E-18,-0.1465,0.002));
#936=CARTESIAN_POINT('',(-1.7347234759768E-18,-0.1465,0.002));
#937=CARTESIAN_POINT('',(0.008,-0.1465,0.002));
#938=CARTESIAN_POINT('',(0.008,-0.1465,0.002));
#939=CARTESIAN_POINT('',(0.008,-0.1445,0.002));
#940=CARTESIAN_POINT('',(0.008,-0.1445,0.002));
#941=CARTESIAN_POINT('',(0.01,-0.1445,0.002));
#942=CARTESIAN_POINT('',(0.01,-0.1445,0.002));
#943=CARTESIAN_POINT('',(0.01,-0.1375,0.002));
#944=CARTESIAN_POINT('',(0.01,-0.1375,0.002));
#945=CARTESIAN_POINT('',(0.01,-0.1305,0.002));
#946=CARTESIAN_POINT('',(0.01,-0.1305,0.002));
#947=CARTESIAN_POINT('',(0.008,-0.1305,0.002));
#948=CARTESIAN_POINT('',(0.008,-0.1305,0.002));
#949=CARTESIAN_POINT('',(0.008,-0.1285,0.002));
#950=CARTESIAN_POINT('',(0.008,-0.1285,0.002));
#951=CARTESIAN_POINT('',(1.7347234759768E-18,-0.1285,0.002));
#952=CARTESIAN_POINT('',(1.7347234759768E-18,-0.1285,0.002));
#953=CARTESIAN_POINT('',(-0.008,-0.1285,0.002));
#954=CARTESIAN_POINT('',(-0.008,-0.1285,0.002));
#955=CARTESIAN_POINT('',(-0.008,-0.1305,0.002));
#956=CARTESIAN_POINT('',(-0.008,-0.1305,0.002));
#957=CARTESIAN_POINT('',(1.38777878078145E-17,0.,0.002));
#958=CARTESIAN_POINT('',(0.,-0.12,0.002));
#959=CARTESIAN_POINT('',(0.,-0.12,0.002));
#960=CARTESIAN_POINT('',(0.007,-0.12,0.002));
#961=CARTESIAN_POINT('',(1.38777878078145E-17,0.,0.002));
#962=CARTESIAN_POINT('',(0.,-0.12,0.002));
#963=CARTESIAN_POINT('',(0.005,-0.12,0.002));
#964=CARTESIAN_POINT('',(0.,-0.12,0.0025));
#965=CARTESIAN_POINT('',(0.,-0.12,0.0025));
#966=CARTESIAN_POINT('',(0.005,-0.12,0.0025));
#967=CARTESIAN_POINT('',(1.38777878078145E-17,0.,0.0025));
#968=MECHANICAL_DESIGN_GEOMETRIC_PRESENTATION_REPRESENTATION('',(#587),
#969);
#969=(
GEOMETRIC_REPRESENTATION_CONTEXT(3)
GLOBAL_UNCERTAINTY_ASSIGNED_CONTEXT((#970))
GLOBAL_UNIT_ASSIGNED_CONTEXT((#973,#972,#971))
REPRESENTATION_CONTEXT('Ramp','TOP_LEVEL_ASSEMBLY_PART')
);
#970=UNCERTAINTY_MEASURE_WITH_UNIT(LENGTH_MEASURE(1.E-8),#973,
'DISTANCE_ACCURACY_VALUE','Maximum Tolerance applied to model');
#971=(
NAMED_UNIT(*)
SI_UNIT($,.STERADIAN.)
SOLID_ANGLE_UNIT()
);
#972=(
NAMED_UNIT(*)
PLANE_ANGLE_UNIT()
SI_UNIT($,.RADIAN.)
);
#973=(
LENGTH_UNIT()
NAMED_UNIT(*)
SI_UNIT($,.METRE.)
);
#974=PRODUCT_DEFINITION_SHAPE('','',#975);
#975=PRODUCT_DEFINITION('','',#977,#976);
#976=PRODUCT_DEFINITION_CONTEXT('',#983,'design');
#977=PRODUCT_DEFINITION_FORMATION_WITH_SPECIFIED_SOURCE('','',#979,
 .NOT_KNOWN.);
#978=PRODUCT_RELATED_PRODUCT_CATEGORY('','',(#979));
#979=PRODUCT('Ramp','Ramp','Ramp',(#981));
#980=PRODUCT_CATEGORY('','');
#981=PRODUCT_CONTEXT('',#983,'mechanical');
#982=APPLICATION_PROTOCOL_DEFINITION('international standard',
'ap242_managed_model_based_3d_engineering',2020,#983);
#983=APPLICATION_CONTEXT('managed model based 3d engineering');
ENDSEC;
END-ISO-10303-21;
